PathFileType	4	(X/Y/Z)	Walk9.trc
DataRate	CameraRate	NumFrames	NumMarkers	Units	OrigDataRate	OrigDataStartFrame	OrigNumFrames
200.000000	200.000000	5	59	mm	200.000000	535	743
Frame#	Times		LToe		LBHD		LWRR		LElbowM		C7		RMT1		LACR1		RMT5		RToe		RTB2		LUA1		LCAR		RTB3		RWRU		LWRU		RCAR		RFA1		RCAL		RMMAL		RLFC		LMMAL		LTH2		RElbowM		LTB2		LPSI		LASI		LTH3		LLFC		RTH3		RASI		RPSI		LFHD		LCAL		STRN		LMT5		RBHD		RACR1		RMFC		RLMAL		RElbow		LLMAL		LMFC		RFHD		LTB1		LTH4		RUA1		LTB4		RBack		LTH1		RTB1		LElbow		RTH2		LMT1		RTH1		RTH4		LTB3		RTB4		RWRR		T10
			X1	Y1	Z1	X2	Y2	Z2	X3	Y3	Z3	X4	Y4	Z4	X5	Y5	Z5	X6	Y6	Z6	X7	Y7	Z7	X8	Y8	Z8	X9	Y9	Z9	X10	Y10	Z10	X11	Y11	Z11	X12	Y12	Z12	X13	Y13	Z13	X14	Y14	Z14	X15	Y15	Z15	X16	Y16	Z16	X17	Y17	Z17	X18	Y18	Z18	X19	Y19	Z19	X20	Y20	Z20	X21	Y21	Z21	X22	Y22	Z22	X23	Y23	Z23	X24	Y24	Z24	X25	Y25	Z25	X26	Y26	Z26	X27	Y27	Z27	X28	Y28	Z28	X29	Y29	Z29	X30	Y30	Z30	X31	Y31	Z31	X32	Y32	Z32	X33	Y33	Z33	X34	Y34	Z34	X35	Y35	Z35	X36	Y36	Z36	X37	Y37	Z37	X38	Y38	Z38	X39	Y39	Z39	X40	Y40	Z40	X41	Y41	Z41	X42	Y42	Z42	X43	Y43	Z43	X44	Y44	Z44	X45	Y45	Z45	X46	Y46	Z46	X47	Y47	Z47	X48	Y48	Z48	X49	Y49	Z49	X50	Y50	Z50	X51	Y51	Z51	X52	Y52	Z52	X53	Y53	Z53	X54	Y54	Z54	X55	Y55	Z55	X56	Y56	Z56	X57	Y57	Z57	X58	Y58	Z58	X59	Y59	Z59

535	2.675	-244.21	23.099	-78.275	-158.14	1589.1	-70.917	43.698	828.09	-288.89	-107.63	1064.8	-322.16	-190.23	1456.2	-8.9981	250.89	45.174	39.938	-102.56	1400	-182.09	208.58	28.197	109.03	295.43	60.83	79.353	87.616	293.88	102.8	-97.07	1201.9	-271.26	-44.893	936.65	-315.52	111.87	207.67	29.92	-166.58	778.6	228.5	114.12	843.03	-267.11	-95.083	757.65	240.78	-177.09	898.25	257.93	45.108	29.274	14.331	123.24	74.682	4.0922	12.134	519.43	112.22	-417.15	88.405	-23.331	-113.45	642.85	-125.12	-239.06	1066.3	186.16	-280.44	280.2	-124.6	-273.31	1010.2	-47.138	-88.948	1016.4	-183.96	-187.44	554.63	-151.53	-217.88	493.52	-139.7	-3.0574	561.99	115.26	-68.672	966.61	125.71	-270.52	1010.6	21.435	19.84	1624	-45.735	-509.87	76.881	-57.85	-264.31	1199.3	-10.169	-341.31	22.674	-134.13	-151.95	1578.3	65.582	-205.34	1340.3	140.79	1.236	480.44	-12.448	90.871	64.042	79.465	-200.16	1058.5	262.3	-441.16	87.154	-106.49	-240.69	481.66	-15.53	22.726	1619.7	28.966	-229.08	357.57	-54.289	-170.98	646.34	-170.01	-118.63	1214.7	223.47	-280.41	280.66	-52.203	-74.724	1394.3	142.24	-156.75	735.62	-189.43	88.171	392.67	32.906	-155.94	1040	-255.46	26.125	676.85	98.326	-299.55	28.555	-53.804	-66.889	737.21	153.68	-31.49	649.53	136.78	-330.66	202.69	-52.735	101.47	296.06	29.498	-94.656	803.42	190.01	23.235	1215.3	-30.051
536	2.68	-244.34	23.017	-78.011	-152.98	1589.3	-69.93	46.914	827.74	-288.38	-103.66	1065	-321.29	-184.88	1456.4	-8.0822	251.65	43.16	39.525	-97.269	1400.3	-181.25	209.38	26.9	109.16	296.67	58.274	78.611	91.493	293.77	102.8	-92.569	1202.1	-270.48	-41.377	936.62	-314.78	114.26	207.29	29.793	-160.87	778.34	228.92	117.44	842.47	-266.8	-89.386	757.33	241.18	-171.28	898.02	258.35	45.45	29.846	14.591	124.16	74.201	4.0115	18.018	520.15	112.34	-415.43	91.064	-23.678	-106.88	642.71	-124.59	-233.23	1066.2	186.61	-275.98	280.84	-124.64	-267.76	1010.3	-46.958	-82.931	1016.7	-183.37	-180.51	554.21	-151.1	-211.03	493.31	-139.31	2.8562	562.84	115.41	-63.202	966.91	126.09	-265.01	1011	21.677	25.01	1624.3	-44.903	-508.25	81.297	-58.185	-258.84	1199.4	-9.5571	-341.17	23.074	-133.84	-146.65	1578.5	66.561	-199.89	1340.2	141.6	6.1449	481	-12.079	92.008	63.985	79.547	-194.23	1058.3	262.71	-439.42	90.128	-106.84	-234.07	481.43	-15.594	27.956	1619.9	29.8	-223.62	357.39	-54.186	-164.43	646.01	-169.46	-112.95	1214.6	224.06	-276.04	281.25	-52.199	-69.367	1394.4	143.06	-150.57	735.36	-188.77	92.505	392.51	32.778	-151.81	1040.4	-254.43	32.043	677.6	98.007	-299.45	28.451	-53.887	-60.812	738.07	153.64	-25.516	650.34	136.72	-327.39	204.02	-52.88	104.77	295.76	29.37	-88.926	803.1	190.42	28.811	1215.7	-29.251
537	2.685	-244.52	22.961	-77.714	-147.8	1589.5	-68.943	49.97	827.4	-287.89	-99.756	1065.3	-320.4	-179.53	1456.6	-7.1814	252.3	41.35	39.16	-91.953	1400.6	-180.41	210.07	25.824	109.36	297.77	55.959	77.951	95.241	293.69	102.81	-88.073	1202.3	-269.69	-37.976	936.64	-314.02	116.53	206.96	29.67	-155.12	778.17	229.36	120.61	841.88	-266.52	-83.665	757.09	241.6	-165.43	897.87	258.77	45.757	30.355	14.84	124.96	73.798	3.9205	23.852	520.9	112.47	-413.48	93.917	-24.081	-100.07	642.62	-124.03	-227.37	1066.1	187.06	-271.23	281.56	-124.72	-262.23	1010.5	-46.796	-76.92	1017.2	-182.74	-173.25	553.79	-150.68	-203.83	493.09	-138.94	8.7352	563.74	115.6	-57.76	967.33	126.48	-259.51	1011.4	21.902	30.198	1624.6	-44.066	-506.37	86.037	-58.554	-253.39	1199.5	-8.9654	-340.98	23.568	-133.55	-141.35	1578.7	67.54	-194.45	1340.2	142.4	11	481.63	-11.71	93.004	63.975	79.604	-188.27	1058.1	263.11	-437.46	93.32	-107.23	-227.07	481.16	-15.68	33.202	1620.2	30.638	-217.83	357.23	-54.125	-157.64	645.69	-168.9	-107.26	1214.5	224.64	-271.36	281.92	-52.243	-64.019	1394.6	143.87	-144.23	735.11	-188.09	96.738	392.39	32.669	-147.74	1040.9	-253.37	37.917	678.38	97.684	-299.36	28.344	-53.976	-54.704	739.01	153.66	-19.538	651.21	136.72	-323.84	205.46	-53.074	107.95	295.5	29.26	-83.17	802.86	190.83	34.377	1216.1	-28.437
538	2.69	-244.77	22.936	-77.38	-142.61	1589.9	-67.958	52.87	827.06	-287.41	-95.905	1065.7	-319.47	-174.18	1457	-6.2972	252.85	39.732	38.829	-86.615	1401	-179.56	210.66	24.955	109.6	298.74	53.866	77.362	98.852	293.64	102.82	-83.577	1202.7	-268.87	-34.687	936.7	-313.25	118.69	206.69	29.545	-149.35	778.06	229.8	123.64	841.27	-266.27	-77.918	756.92	242.03	-159.56	897.79	259.2	46.032	30.801	15.073	125.65	73.465	3.8138	29.604	521.66	112.62	-411.29	96.96	-24.55	-93.022	642.58	-123.45	-221.49	1066.1	187.51	-266.19	282.36	-124.86	-256.71	1010.7	-46.647	-70.919	1017.7	-182.09	-165.67	553.37	-150.25	-196.28	492.85	-138.61	14.551	564.67	115.83	-52.349	967.86	126.89	-254.03	1011.8	22.115	35.4	1625	-43.227	-504.18	91.099	-58.965	-247.95	1199.7	-8.3929	-340.72	24.17	-133.27	-136.04	1579	68.518	-189.02	1340.3	143.2	15.786	482.31	-11.349	93.87	64.005	79.634	-182.28	1058.1	263.52	-435.25	96.728	-107.68	-219.66	480.85	-15.784	38.463	1620.5	31.479	-211.7	357.09	-54.11	-150.61	645.37	-168.34	-101.56	1214.6	225.21	-266.37	282.67	-52.34	-58.681	1394.9	144.67	-137.73	734.88	-187.37	100.86	392.3	32.576	-143.72	1041.4	-252.26	43.731	679.18	97.374	-299.3	28.236	-54.066	-48.587	739.99	153.75	-13.582	652.11	136.78	-320.01	207.03	-53.324	111.03	295.28	29.161	-77.387	802.7	191.26	39.927	1216.6	-27.615
539	2.695	-245.09	22.951	-77.009	-137.41	1590.3	-66.978	55.616	826.74	-286.94	-92.108	1066.1	-318.53	-168.84	1457.3	-5.4309	253.31	38.289	38.517	-81.261	1401.4	-178.7	211.17	24.275	109.86	299.62	51.976	76.826	102.32	293.6	102.82	-79.081	1203.1	-268.03	-31.508	936.82	-312.48	120.74	206.45	29.415	-143.55	778.03	230.26	126.52	840.63	-266.03	-72.143	756.82	242.47	-153.67	897.79	259.64	46.276	31.185	15.287	126.24	73.19	3.6875	35.244	522.4	112.78	-408.82	100.19	-25.091	-85.749	642.59	-122.84	-215.6	1066.1	187.97	-260.84	283.26	-125.05	-251.23	1011	-46.503	-64.936	1018.2	-181.42	-157.77	552.94	-149.84	-188.36	492.6	-138.3	20.273	565.6	116.08	-46.968	968.49	127.32	-248.58	1012.3	22.321	40.615	1625.4	-42.389	-501.68	96.473	-59.425	-242.53	1199.9	-7.8381	-340.36	24.89	-133	-130.73	1579.3	69.491	-183.6	1340.5	143.98	20.485	483.01	-11.005	94.619	64.066	79.633	-176.28	1058.1	263.93	-432.79	100.35	-108.19	-211.83	480.49	-15.898	43.737	1620.9	32.32	-205.22	356.97	-54.144	-143.34	645.06	-167.78	-95.848	1214.7	225.78	-261.05	283.49	-52.496	-53.358	1395.2	145.46	-131.06	734.67	-186.63	104.87	392.22	32.494	-139.76	1042.1	-251.12	49.468	679.97	97.092	-299.25	28.131	-54.153	-42.487	741.01	153.9	-7.6762	653.02	136.89	-315.88	208.72	-53.634	114	295.08	29.07	-71.577	802.6	191.69	45.458	1217.2	-26.791
